<?xml version="1.0" encoding="UTF-8"?><svg id="Layer_1" xmlns="http://www.w3.org/2000/svg" xmlns:xlink="http://www.w3.org/1999/xlink" viewBox="0 0 336.25 287.38"><defs><style>.cls-1{fill:url(#linear-gradient-8);}.cls-2{fill:url(#linear-gradient-7);}.cls-3{fill:url(#linear-gradient-5);}.cls-4{fill:url(#linear-gradient-6);}.cls-5{fill:url(#linear-gradient-9);}.cls-6{fill:url(#linear-gradient-4);}.cls-7{fill:url(#linear-gradient-3);}.cls-8{fill:url(#linear-gradient-2);}.cls-9{fill:url(#linear-gradient);}.cls-10{fill:url(#linear-gradient-14);opacity:.92;}.cls-11{fill:url(#linear-gradient-12);opacity:.86;}.cls-12{fill:url(#linear-gradient-15);opacity:.68;}.cls-13{fill:url(#linear-gradient-13);opacity:.64;}.cls-14{fill:url(#linear-gradient-16);opacity:.58;}.cls-15{fill:url(#linear-gradient-10);}.cls-16{fill:url(#linear-gradient-11);}</style><linearGradient id="linear-gradient" x1="130.29" y1="-11.02" x2="40.47" y2="144.55" gradientUnits="userSpaceOnUse"><stop offset=".26" stop-color="#42c490"/><stop offset=".89" stop-color="#006a33"/></linearGradient><linearGradient id="linear-gradient-2" x1="232.6" y1="20.87" x2="156.37" y2="152.9" xlink:href="#linear-gradient"/><linearGradient id="linear-gradient-3" x1="98.98" y1="125.57" x2="8.43" y2="282.4" xlink:href="#linear-gradient"/><linearGradient id="linear-gradient-4" x1="224.19" y1="182.72" x2="165.63" y2="284.15" gradientTransform="translate(1.66 -9.97) rotate(.7)" xlink:href="#linear-gradient"/><linearGradient id="linear-gradient-5" x1="321.95" y1="155.21" x2="258.23" y2="265.58" xlink:href="#linear-gradient"/><linearGradient id="linear-gradient-6" x1="105.06" y1="122.66" x2="51.95" y2="185.97" gradientUnits="userSpaceOnUse"><stop offset="0" stop-color="#fff" stop-opacity=".95"/><stop offset="0" stop-color="#fff" stop-opacity=".78"/><stop offset=".02" stop-color="#fff" stop-opacity=".61"/><stop offset=".02" stop-color="#fff" stop-opacity=".47"/><stop offset=".03" stop-color="#fff" stop-opacity=".34"/><stop offset=".05" stop-color="#fff" stop-opacity=".23"/><stop offset=".06" stop-color="#fff" stop-opacity=".15"/><stop offset=".07" stop-color="#fff" stop-opacity=".08"/><stop offset=".09" stop-color="#fff" stop-opacity=".03"/><stop offset=".12" stop-color="#fff" stop-opacity="0"/><stop offset=".19" stop-color="#fff" stop-opacity="0"/></linearGradient><linearGradient id="linear-gradient-7" x1="73.39" y1="132.37" x2="73.39" y2="177.31" gradientUnits="userSpaceOnUse"><stop offset="0" stop-color="#fff" stop-opacity=".95"/><stop offset=".03" stop-color="#fff" stop-opacity=".76"/><stop offset=".07" stop-color="#fff" stop-opacity=".56"/><stop offset=".11" stop-color="#fff" stop-opacity=".39"/><stop offset=".15" stop-color="#fff" stop-opacity=".25"/><stop offset=".19" stop-color="#fff" stop-opacity=".14"/><stop offset=".22" stop-color="#fff" stop-opacity=".06"/><stop offset=".26" stop-color="#fff" stop-opacity=".02"/><stop offset=".3" stop-color="#fff" stop-opacity="0"/></linearGradient><linearGradient id="linear-gradient-8" x1="45.72" y1="0" x2="45.72" y2="67.94" gradientUnits="userSpaceOnUse"><stop offset="0" stop-color="#fff" stop-opacity=".95"/><stop offset=".01" stop-color="#fff" stop-opacity=".85"/><stop offset=".04" stop-color="#fff" stop-opacity=".68"/><stop offset=".08" stop-color="#fff" stop-opacity=".52"/><stop offset=".11" stop-color="#fff" stop-opacity=".38"/><stop offset=".15" stop-color="#fff" stop-opacity=".26"/><stop offset=".19" stop-color="#fff" stop-opacity=".16"/><stop offset=".24" stop-color="#fff" stop-opacity=".09"/><stop offset=".29" stop-color="#fff" stop-opacity=".04"/><stop offset=".36" stop-color="#fff" stop-opacity="0"/><stop offset=".5" stop-color="#fff" stop-opacity="0"/></linearGradient><linearGradient id="linear-gradient-9" x1="118.54" y1="3.81" x2="127.95" y2="57.2" gradientUnits="userSpaceOnUse"><stop offset="0" stop-color="#fff" stop-opacity=".95"/><stop offset=".02" stop-color="#fff" stop-opacity=".83"/><stop offset=".07" stop-color="#fff" stop-opacity=".64"/><stop offset=".12" stop-color="#fff" stop-opacity=".47"/><stop offset=".17" stop-color="#fff" stop-opacity=".32"/><stop offset=".22" stop-color="#fff" stop-opacity=".21"/><stop offset=".27" stop-color="#fff" stop-opacity=".11"/><stop offset=".33" stop-color="#fff" stop-opacity=".05"/><stop offset=".39" stop-color="#fff" stop-opacity=".01"/><stop offset=".47" stop-color="#fff" stop-opacity="0"/></linearGradient><linearGradient id="linear-gradient-10" x1="185.17" y1="37.99" x2="186.81" y2="61.49" gradientUnits="userSpaceOnUse"><stop offset=".02" stop-color="#fff" stop-opacity=".95"/><stop offset=".05" stop-color="#fff" stop-opacity=".83"/><stop offset=".1" stop-color="#fff" stop-opacity=".66"/><stop offset=".15" stop-color="#fff" stop-opacity=".5"/><stop offset=".21" stop-color="#fff" stop-opacity=".36"/><stop offset=".27" stop-color="#fff" stop-opacity=".25"/><stop offset=".34" stop-color="#fff" stop-opacity=".16"/><stop offset=".42" stop-color="#fff" stop-opacity=".09"/><stop offset=".51" stop-color="#fff" stop-opacity=".04"/><stop offset=".63" stop-color="#fff" stop-opacity="0"/><stop offset=".91" stop-color="#fff" stop-opacity="0"/></linearGradient><linearGradient id="linear-gradient-11" x1="247.51" y1="37.82" x2="249.57" y2="57.37" gradientUnits="userSpaceOnUse"><stop offset=".02" stop-color="#fff" stop-opacity=".95"/><stop offset=".06" stop-color="#fff" stop-opacity=".82"/><stop offset=".13" stop-color="#fff" stop-opacity=".63"/><stop offset=".2" stop-color="#fff" stop-opacity=".46"/><stop offset=".27" stop-color="#fff" stop-opacity=".32"/><stop offset=".35" stop-color="#fff" stop-opacity=".2"/><stop offset=".43" stop-color="#fff" stop-opacity=".11"/><stop offset=".52" stop-color="#fff" stop-opacity=".05"/><stop offset=".61" stop-color="#fff" stop-opacity=".01"/><stop offset=".74" stop-color="#fff" stop-opacity="0"/></linearGradient><linearGradient id="linear-gradient-12" x1="212.36" y1="171.4" x2="196" y2="214.04" gradientUnits="userSpaceOnUse"><stop offset="0" stop-color="#fff" stop-opacity=".95"/><stop offset="0" stop-color="#fff" stop-opacity=".82"/><stop offset=".02" stop-color="#fff" stop-opacity=".65"/><stop offset=".04" stop-color="#fff" stop-opacity=".49"/><stop offset=".06" stop-color="#fff" stop-opacity=".36"/><stop offset=".08" stop-color="#fff" stop-opacity=".25"/><stop offset=".1" stop-color="#fff" stop-opacity=".16"/><stop offset=".12" stop-color="#fff" stop-opacity=".09"/><stop offset=".15" stop-color="#fff" stop-opacity=".04"/><stop offset=".19" stop-color="#fff" stop-opacity="0"/><stop offset=".28" stop-color="#fff" stop-opacity="0"/></linearGradient><linearGradient id="linear-gradient-13" x1="193.21" y1="168.17" x2="207.82" y2="236.92" gradientUnits="userSpaceOnUse"><stop offset="0" stop-color="#fff" stop-opacity=".95"/><stop offset="0" stop-color="#fff" stop-opacity=".87"/><stop offset=".02" stop-color="#fff" stop-opacity=".69"/><stop offset=".03" stop-color="#fff" stop-opacity=".52"/><stop offset=".05" stop-color="#fff" stop-opacity=".38"/><stop offset=".07" stop-color="#fff" stop-opacity=".26"/><stop offset=".09" stop-color="#fff" stop-opacity=".17"/><stop offset=".11" stop-color="#fff" stop-opacity=".09"/><stop offset=".13" stop-color="#fff" stop-opacity=".04"/><stop offset=".16" stop-color="#fff" stop-opacity="0"/><stop offset=".23" stop-color="#fff" stop-opacity="0"/></linearGradient><linearGradient id="linear-gradient-14" x1="269.97" y1="152.55" x2="300.34" y2="205.15" gradientUnits="userSpaceOnUse"><stop offset=".02" stop-color="#fff" stop-opacity=".95"/><stop offset=".03" stop-color="#fff" stop-opacity=".85"/><stop offset=".04" stop-color="#fff" stop-opacity=".68"/><stop offset=".05" stop-color="#fff" stop-opacity=".51"/><stop offset=".06" stop-color="#fff" stop-opacity=".38"/><stop offset=".08" stop-color="#fff" stop-opacity=".26"/><stop offset=".1" stop-color="#fff" stop-opacity=".16"/><stop offset=".11" stop-color="#fff" stop-opacity=".09"/><stop offset=".14" stop-color="#fff" stop-opacity=".04"/><stop offset=".16" stop-color="#fff" stop-opacity="0"/><stop offset=".22" stop-color="#fff" stop-opacity="0"/></linearGradient><linearGradient id="linear-gradient-15" x1="308.5" y1="148.48" x2="266.8" y2="208.04" gradientUnits="userSpaceOnUse"><stop offset=".02" stop-color="#fff" stop-opacity=".95"/><stop offset=".03" stop-color="#fff" stop-opacity=".78"/><stop offset=".04" stop-color="#fff" stop-opacity=".61"/><stop offset=".05" stop-color="#fff" stop-opacity=".47"/><stop offset=".06" stop-color="#fff" stop-opacity=".34"/><stop offset=".07" stop-color="#fff" stop-opacity=".23"/><stop offset=".09" stop-color="#fff" stop-opacity=".15"/><stop offset=".11" stop-color="#fff" stop-opacity=".08"/><stop offset=".13" stop-color="#fff" stop-opacity=".03"/><stop offset=".16" stop-color="#fff" stop-opacity="0"/><stop offset=".24" stop-color="#fff" stop-opacity="0"/></linearGradient><linearGradient id="linear-gradient-16" x1="314.26" y1="152.17" x2="258.22" y2="208.21" gradientUnits="userSpaceOnUse"><stop offset=".02" stop-color="#fff" stop-opacity=".95"/><stop offset=".03" stop-color="#fff" stop-opacity=".78"/><stop offset=".03" stop-color="#fff" stop-opacity=".61"/><stop offset=".04" stop-color="#fff" stop-opacity=".47"/><stop offset=".05" stop-color="#fff" stop-opacity=".34"/><stop offset=".06" stop-color="#fff" stop-opacity=".23"/><stop offset=".07" stop-color="#fff" stop-opacity=".15"/><stop offset=".09" stop-color="#fff" stop-opacity=".08"/><stop offset=".1" stop-color="#fff" stop-opacity=".03"/><stop offset=".13" stop-color="#fff" stop-opacity="0"/><stop offset=".19" stop-color="#fff" stop-opacity="0"/></linearGradient></defs><path class="cls-9" d="M5.75,117.42c1.34-2.34,2.67-3.34,7.35-4.84,2.17-.83,3.84-3.34,4.68-10.52.17-1.84.33-4.01,1-19.54l.17-.83.33-4.18.17-5.68c.67-16.7,1.34-24.26,1.17-29.77v-1.17l-.67-7.35c-.33-4.18-1-6.35-2.17-7.85l-.17-.17-5.85-4.18c-6.01-4.01-6.85-8.02-3.17-13.53,2.34-3.01,6.51-5.68,14.87-6.68l2.84-.33,4.01-.33c2.84-.17,5.85-.33,8.69-.17,19.04,1,13.29,2.46,30.99,35.2,2.51,5.01,5.18,10.19,7.68,15.37.17.17.33.33.5.67,6.51,8.35,6.01,8.52,10.36,2,2-3.17,5.34-9.52,15.7-31.23.5-1,1.17-2,1.84-3.17,8.52-13.19,11.86-15.7,24.55-17.37,17.54-2.17,26.89,1.17,30.4,6.18,4.68,6.51,3.34,9.85-3.84,15.03-3.84,2.67-5.34,8.68-6.01,44.76,0,2.34,0,4.34.17,7.02,2.67,41.26,2.17,31.73,8.68,36.58,1,.67,2,1.67,2.67,2.67,4.17,4.84,2.17,11.02-5.18,13.7-8.35,2.84-8.17,3.34-32.05,2.17-5.51-.17-8.79-.93-10.96-1.6-9.69-2.34-12.69-6.35-11.69-10.86.83-3.17,1.84-4.34,7.35-8.02,1-.84,3.1-1.78,2.31-5.91v-.33l.33-11.86.17-14.2c-.5-3.17-2.38-4.06-4.55-3.06-.83.67-1.5,1.34-2,2.17l-1,1.34-1.67,3.67-.67,1.5-3.64,8.11c-1.67,3.34-1.08,6.52-10.27,27.56l-2.34,4.68c-.33.67-.83,1.34-1.5,2-2.51,2.67-7.62,2.48-8.79.48-1.67-3.17-3.51-6.85-8.68-17.2-.32-.64-.76-1.26-.96-1.98-.72-2.59-1.44-4.73-2.15-7.07-2.74-8.96-3.82-11.5-4.86-14.18-4.34-10.69-5.34-12.53-6.85-13.53-1.67-1.17-6.41-1.42-7.24-.25-1.34,2-3.61,5.65-2.61,16.34.17,2.84.33,6.35.17,13.7-.17,7.02.33,8.35,5.18,10.69,1.67,1,3.34,2,4.84,3.17,2.67,1.84,2.84,6.18-1.5,10.19-2.84,2.84-8.85,4.68-23.22,4.68-8.68,0-13.7-1-16.2-2-5.01-2-7.02-4.68-7.35-7.18-.17-1.17.17-2.51.67-3.51Z"/><path class="cls-8" d="M270.32,45.11c1.17,3.01.83,6.51-.67,8.68h-.17l-8.02,4.84c-9.02,5.18-9.69,8.18-29.06,68.15-.33,1.34-.83,2.67-1.5,4.01-1.5,3.68-2.84,6.51-4.34,8.85-6.18,10.19-11.02,15.53-17.54,19.37-4.84,2.67-9.85,4.34-15.2,5.01-22.72,3.17-37.91-9.85-36.75-23.22,1-10.69,4.34-14.7,13.7-16.7,10.02-2,17.04,3.17,20.54,16.37.33,1,.5,2,.67,2.84,0,.67.33,1.34.83,1.84,1,1,2.51,1,3.17.17,1.34-1.17,2.51-3.17,2.84-7.18.33-3.01-.17-5.68-3.67-14.03l-13.53-27.06c-16.7-34.07-15.53-33.07-20.54-35.58l-4.51-2.17-.83-.17c-1.5-.5-2.67-2.34-2.84-5.85-.17-2.17.83-4.84,3.01-7.52,2.34-2.67,6.18-4.34,17.7-6.51,4.68-1,12.36-1.34,21.55-1l1.34.17,6.35.33c2.51.17,4.84.5,7.18.83,7.85,1.5,12.03,9.19,7.68,16.7-.5,1-1.17,2-1.84,3.01-.67,1-.67,2.51.67,5.85l.17.5,2.67,6.18c.33,1,.83,2,1.5,3.01,2.51,5.34,2.84,5.85,3.84,6.85.67.67,1.84.33,3.01-1.5,1.5-3.17,2.84-6.85,3.67-10.69,1.84-9.19,2.34-7.85-2.84-14.53-4.68-6.01-2.17-13.03,6.18-15.37,2.17-.67,4.34-1,6.68-1.17,4.34-.33,8.18-.33,11.19-.33,9.69-.17,13.19,1.17,16.53,4.51.5.83.84,1.67,1.17,2.51Z"/><path class="cls-7" d="M14.14,133.75c1.98-.4,3.97-.2,35.74.79,3.18,0,6.55-.2,30.78-1.79,3.57-.4,6.95-.4,10.33-.2,42.69,1.79,62.95,25.42,55.8,59.18-1.59,7.55-4.96,14.69-9.73,20.85-9.53,11.91-20.25,17.47-38.72,19.46-5.16.4-9.13.4-21.64,0q-3.77-.2-4.77,6.55c-2.38,15.49,2.18,22.64,14.1,26.61,1.99.6,3.97,5.96-.4,12.31-5.16,7.75-13.3,10.52-48.25,9.73-19.06-.4-28.2-3.38-32.96-7.55-4.57-4.37-4.96-11.72-2.18-13.9,2.18-1.59,4.96-3.18,7.35-4.57,5.96-4.17,6.55-6.35,6.75-21.45l.79-54.41c.4-25.22-1.19-29.19-14.5-32.96-1.99-.4-3.38-3.38-2.19-8.94,1.19-5.36,4.96-8.54,13.7-9.73ZM92.35,207.75c5.86,1.23,11.8,2.47,17.78,2.09,5.98-.38,12.09-2.59,15.87-7.16s4.53-11.76.71-16.3c-2.39-2.85-6.06-4.27-9.44-5.88-11.14-5.33-10.68-10.38-17.25-20.62-2.81-4.39-13.19-10.52-19.84-9.92-7.17.64-13.9,8.25-18.14,13.31-5.34,6.37-9.51,13.7-12.16,21.54-2.01,5.95-2.97,13.08.97,18.01,2.54,3.17,6.94,4.79,10.97,4.04,4.03-.75,7.52-3.85,8.7-7.71"/><path class="cls-6" d="M134.51,224.89c.4-20.85,10.52-37.93,30.78-49.25,9.33-5.16,19.46-8.14,29.39-8.34,7.74,0,15.29,1.99,22.44,4.96,16.88,7.15,27.4,20.65,29.99,35.74,1.98,12.71,1.39,15.09-5.36,19.46-5.56,3.58-25.42,6.55-55.6,2.18-.6-.4-1.39-.4-2.18-.4-2.38.4-3.77,2.58-2.58,6.16.79,3.18,2.18,5.36,6.16,9.73,8.74,9.93,22.64,10.72,42.49-.2.99-.6,1.79-.99,2.58-1.59.6-.4,1.59-.4,4.37.79,2.78,1.19,5.16,3.77,6.35,7.15,1.79,5.76-1.59,12.11-14.89,21.05-11.32,7.55-27.21,11.52-45.28,9.14-21.45-2.58-36.54-13.7-44.48-33.96-2.18-5.56-3.58-11.32-3.97-16.88-.2-1.99-.2-3.77-.2-5.76ZM193.55,224.74l2.81-.11c12.06-2.27,13.54-2.49,18.18-17.36,1.32-4.24-.12-8.76-2.23-12.53-.49-.88-1.74-1.92-1.95-2.83-.2-.83-.62-.76.45-2.05,1.59-1.92,2.25-7.55,2.11-10.63-.03-.61-.09-1.29-.55-1.65-.54-.41-1.3-.16-1.93.11-3.93,1.66-8.84,3.64-12.76,5.3-3.31,1.4-5.45.21-9.6.68-2.77.31-4.11-.25-9.09,3.17-3.07,2.11-4.41,11.32-8.89,12.18-3.04.58-3.15,8.31-1.25,13.02,4.23,10.55,20.67,12.23,24.72,12.69Z"/><path class="cls-3" d="M247.87,190.22h-.79c-10.13.2-11.72-.4-10.33-12.31.2-2.38,1.19-3.57,5.96-7.15,2.78-1.79,5.96-3.77,23.63-13.11.79-.4,1.39-1.19,13.3-10.33,4.37-3.18,6.95-4.57,9.53-4.96,11.92-2.58,15.49,1.19,15.29,13.11l-.6,9.93v.79c-.2,2.58.6,2.58,4.57,2.58.99-.2,2.38,0,8.14.2,6.55.4,9.73.4,12.51.2,2.18-.2,4.57,1.39,6.35,5.76.79,1.99.99,4.17.6,6.95-1.79,8.54-3.77,9.13-18.86,9.33h-8.54c-5.76-.2-4.96-.6-4.17,17.87.2,7.35.2,14.89,0,22.44v.4l.99,5.96c1.39,8.54,7.74,11.32,20.45,4.17,2.18-1.39,5.36-.6,7.94,2.58,1.19,1.19,2.38,4.37,2.38,9.53,0,4.37-3.58,9.33-14.69,16.48-6.16,4.17-14.3,6.75-23.23,7.35-19.86,1.59-32.57-4.96-38.72-18.07-4.17-8.14-4.96-14.69-4.57-52.42,0-5.76.4-11.12.79-16.88l-7.94-.4Z"/><path class="cls-4" d="M43.15,155.22s-39.14,1.76-40.85-5.31c-1.71-7.07,2.77-12.01,2.77-12.01,0,0,3.95-3.87,19.86-3.25,15.92.62,24.81,1.7,27.93,1.24s22.68-2.69,26.73-3.06c4.34-.4,11.64-.57,20.74.43,11.87,1.3,23.56,6.2,27.77,9.15,4.21,2.94,12.05,8.78,15.83,17.02,2.63,5.74,3.39,9.81,3.96,13.82.61,4.28-4.98,6.67-7.16,6.66-2.18-.02-24.03-9.08-24.35-12.6s-23.75-15.32-23.75-17.4-14.66-3.63-19.89-1.29-29.58,6.6-29.58,6.6Z"/><path class="cls-2" d="M42.23,154.63c-.6.11-1.17.17-1.78.19-5.89.22-38.63,1.31-40.19-5.23-.02-.07-.05-.2-.06-.27-.79-7.04,1.71-13.01,10.56-14.97,3.48-.77,5.55-.87,12.36-.65,16,.51,24.25.78,27.88.85,3.17.06,23.12-1.51,27.19-1.63,4.17-.12,11.55-1.14,20.66,0,9.11,1.13,23.79,5.78,28.02,8.77,4.23,3,10.26,5.36,16.58,16.8,3.61,6.54,1.98,10.09,3.14,14.33,1.16,4.24-5.17,7.13-7.36,7.11-2.19-.02-24.1-9.23-24.42-12.82s-27.9-16.17-31.54-17.17c-2.03-.56-6.84.81-12.09,3.19-4.66,2.11-24.55.73-28.94,1.53Z"/><path class="cls-1" d="M32.65,17.23s-17.83,3.75-23.17,1.61c-5.34-2.14-1.81-9.5-1.81-9.5,0,0,2.13-4.15,6.13-5.64,4-1.49,8.48-2.57,12.49-2.91s10.94-1.61,17.94,0c6.99,1.61,9.37.35,12.94,8.96,3.57,8.61,13.57,27.24,13.57,27.24,0,0,5,12.28,9.06,16.63s4.33,8.12,4.33,8.12c0,0,1.75,4.17,0,6.02s-15.63-10.97-18.05-16.6-18.68-32.61-20.36-33.2-7.27-4.88-13.07-.74Z"/><path class="cls-5" d="M86.28,56.94s14.36-23.97,16.39-31.43c0,0,3.62-6.95,4.46-8.14s5.65-8.08,6.95-8.87c0,0,3.73-3.84,6.83-4.63,3.11-.79,8.59-2.43,13.95-2.54s16.15-1.41,24.29,4.69c0,0,4.46,4.24,4.52,8.36s-3.61,6.21-3.61,6.21c0,0-2.88,1.98-4.69,4.18-1.81,2.2-30.97-.4-30.97-.4,0,0-2.54-1.34-5.21.67-2.67,2.01-13.77,18.71-13.77,18.71,0,0-8.56,16.04-9.89,16.58s-7.55,4.98-9.25,3.88c-1.71-1.11,0-7.26,0-7.26Z"/><path class="cls-15" d="M158.42,59.47s-1.06,0-2.9-.42-2.64-5.44-2.64-5.44c0,0-.25-2.9,1.44-5.73s5.58-5.58,8.13-6.01,3.96-1.63,12.16-2.9c8.2-1.27,17.03-.9,17.03-.9,0,0,2.47.26,7.42.47s10.18.64,12.37,1.34,6.01,2.62,7.35,7c1.34,4.38.28,7.42-.99,9.33s-2.12,3.25-2.12,3.25c0,0-20.99,1.2-27.35.49-6.36-.71-30.11.28-29.9-.49Z"/><path class="cls-16" d="M227.92,54.08s-3.55-4.73-.37-9.69c0,0,1.11-2.52,5.25-4.22s12.13-1.92,12.13-1.92c0,0,10.87-.89,15.98.22s8.29,3.25,8.8,5.18,1.99,2.62,1.02,7.82c0,0-.58,2.58-3.62,3.89s-18.48-.77-18.48-.77l-12.67.15s-7.28.21-8.05-.66Z"/><path class="cls-11" d="M156.66,181.27s15.97-13.38,38.93-13.96c0,0,22.16.85,36.48,14.27,14.33,13.42,15.06,25.9,16.02,35.54.95,9.64-9.8,11.88-9.8,11.88,0,0-8.51-1.08-8.3-8.6.21-7.52-5.74-22.82-10.83-25.57s-6.54-10.84-6.54-10.84c0,0,.39-3.02.27-5.04s-1.62-1.56-1.62-1.56c0,0-.48.02-2.8,1.1-2.32,1.08-12.91,4.22-13.56,4.11-.66-.11-16.27-1.62-21.52,1.92-5.25,3.54-7.04,5.27-10.69,7.44s-9.39-.68-9.83-2.17c-.44-1.48-3.18-3.38,3.78-8.54Z"/><path class="cls-13" d="M156.66,181.27s15.97-13.38,38.93-13.96c0,0,22.16.85,36.48,14.27,14.33,13.42,15.06,25.9,16.02,35.54.95,9.64-9.8,11.88-9.8,11.88,0,0-8.51-1.08-8.3-8.6.21-7.52-5.74-22.82-10.83-25.57s-6.54-10.84-6.54-10.84c0,0,.39-3.02.27-5.04s-1.62-1.56-1.62-1.56c0,0-.48.02-2.8,1.1-2.32,1.08-12.91,4.22-13.56,4.11-.66-.11-16.27-1.62-21.52,1.92-5.25,3.54-7.04,5.27-10.69,7.44s-9.39-.68-9.83-2.17c-.44-1.48-3.18-3.38,3.78-8.54Z"/><path class="cls-10" d="M248.16,167.31s16.31-8.67,16.98-9.02c.67-.36,1.88-1.09,1.88-1.09l12.62-9.87s5.67-4.18,8.48-4.75,7.26-1.58,10.5-.57,4.26,3.46,4.26,3.46c0,0,1.29,2.5,1.44,5.61.14,3.11.14,4.42.1,4.99s-.52,8.65-.52,8.65c0,0-.35,2.63.35,3.5s4.34.52,4.34.52l6.42.17,10.27.39,3.8-.13s1.03-.35,2.88.83c1.86,1.18,3.56,4.78,3.83,5.96.27,1.18,1.07,4.23-.39,8.53-1.46,4.3-24.44-1.17-24.44-1.17,0,0-15.51,1.66-17.06-4.43-1.54-6.09-.16-15.42-.16-15.42,0,0,2.27-8.03,0-8.93s-9.33-.24-12.17,4.46c-2.84,4.71-12.75,11.52-13.19,11.52s-26.69,18.21-30.03,17.43c-3.34-.78-1.62-10.7-1-12.22.8-1.96,9.85-7.75,10.81-8.43Z"/><path class="cls-12" d="M248.13,167.31s16.31-8.67,16.98-9.02c.67-.36,1.88-1.09,1.88-1.09l12.62-9.87s5.67-4.18,8.48-4.75,7.26-1.58,10.5-.57,4.26,3.46,4.26,3.46c0,0,1.29,2.5,1.44,5.61.14,3.11.14,4.42.1,4.99s-.52,8.65-.52,8.65c0,0-.35,2.63.35,3.5s4.34.52,4.34.52l6.42.17,10.27.39,3.8-.13s1.03-.35,2.88.83c1.86,1.18,3.56,4.78,3.83,5.96s1.07,4.23-.39,8.53c-1.46,4.3-24.44-1.17-24.44-1.17,0,0-15.51,1.66-17.06-4.43-1.54-6.09-.16-15.42-.16-15.42,0,0,2.27-8.03,0-8.93-2.27-.89-9.33-.24-12.17,4.46-2.84,4.71-12.75,11.52-13.19,11.52s-26.69,18.21-30.03,17.43c-3.34-.78-1.62-10.7-1-12.22.8-1.96,9.85-7.75,10.81-8.43Z"/><path class="cls-14" d="M248.13,167.31s16.31-8.67,16.98-9.02c.67-.36,1.88-1.09,1.88-1.09l12.62-9.87s5.67-4.18,8.48-4.75,7.26-1.58,10.5-.57,4.26,3.46,4.26,3.46c0,0,1.29,2.5,1.44,5.61.14,3.11.14,4.42.1,4.99s-.52,8.65-.52,8.65c0,0-.35,2.63.35,3.5s4.34.52,4.34.52l6.42.17,10.27.39,3.8-.13s1.03-.35,2.88.83c1.86,1.18,3.56,4.78,3.83,5.96s1.07,4.23-.39,8.53c-1.46,4.3-24.44-1.17-24.44-1.17,0,0-15.51,1.66-17.06-4.43-1.54-6.09-.16-15.42-.16-15.42,0,0,2.27-8.03,0-8.93-2.27-.89-9.33-.24-12.17,4.46-2.84,4.71-12.75,11.52-13.19,11.52s-26.69,18.21-30.03,17.43c-3.34-.78-1.62-10.7-1-12.22.8-1.96,9.85-7.75,10.81-8.43Z"/></svg>